Coordinates
version=1
nRows=11
nColumns=63
inDegrees=yes

Units are S.I. units (second, meters, Newtons, ...)
If the header above contains a line with 'inDegrees', this indicates whether rotational values are in degrees (yes) or radians (no).

endheader
time	pelvis_tilt	pelvis_list	pelvis_rotation	pelvis_tx	pelvis_ty	pelvis_tz	hip_flexion_r	hip_adduction_r	hip_rotation_r	knee_angle_r	knee_angle_r_beta	ankle_angle_r	subtalar_angle_r	mtp_angle_r	hip_flexion_l	hip_adduction_l	hip_rotation_l	knee_angle_l	knee_angle_l_beta	ankle_angle_l	subtalar_angle_l	mtp_angle_l	L5_S1_Flex_Ext	L5_S1_Lat_Bending	L5_S1_axial_rotation	L4_L5_Flex_Ext	L4_L5_Lat_Bending	L4_L5_axial_rotation	L3_L4_Flex_Ext	L3_L4_Lat_Bending	L3_L4_axial_rotation	L2_L3_Flex_Ext	L2_L3_Lat_Bending	L2_L3_axial_rotation	L1_L2_Flex_Ext	L1_L2_Lat_Bending	L1_L2_axial_rotation	L1_T12_Flex_Ext	L1_T12_Lat_Bending	L1_T12_axial_rotation	Abs_r3	Abs_r2	Abs_r1	Abs_t1	Abs_t2	neck_flexion	neck_bending	neck_rotation	arm_flex_r	arm_add_r	arm_rot_r	elbow_flex_r	pro_sup_r	wrist_flex_r	wrist_dev_r	arm_flex_l	arm_add_l	arm_rot_l	elbow_flex_l	pro_sup_l	wrist_flex_l	wrist_dev_l
1.891304	0.180454	-3.426714	96.598460	0.176523	0.835247	0.693198	-7.082829	-0.409050	-0.009253	0.749596	0.013083	26.520026	-13.312717	0.000000	-2.377751	-0.059004	29.032883	5.654787	0.098695	27.094476	-11.261748	0.000000	0.111707	0.027482	-1.291089	0.207451	0.036551	-1.371782	0.183523	0.066820	-1.371782	0.127670	0.066820	-1.129703	0.103731	0.056042	-1.049010	0.063829	0.042570	-0.968317	0.797911	0.310884	-7.180651	0.000000	0.000000	8.914902	1.921177	1.231992	88.984339	-100.472556	71.304468	11.513042	21.166469	-15.452695	20.605772	-80.973352	-76.986472	-7.595635	0.948129	10.513862	-18.688664	-4.777588
1.913043	0.132291	-3.448879	96.625295	0.176506	0.835302	0.693198	-7.074891	-0.462279	-0.168033	0.756205	0.013198	26.610507	-13.054029	0.000000	-2.333632	-0.005790	28.881174	5.652440	0.098654	27.125440	-11.117916	0.000000	0.113524	0.019692	-1.307223	0.210825	0.026191	-1.388924	0.186508	0.047880	-1.388924	0.129746	0.047880	-1.143820	0.105418	0.040156	-1.062118	0.064867	0.030503	-0.980417	0.810888	0.222762	-7.270380	0.000000	0.000000	8.899216	2.000023	1.223571	90.150796	-100.096749	70.342862	11.108373	23.744482	-15.182915	20.259065	-81.166713	-76.906650	-7.256499	0.919268	11.026595	-19.079285	-4.625202
1.934783	0.095361	-3.460854	96.640983	0.176510	0.835413	0.693176	-7.075773	-0.503951	-0.316980	0.762371	0.013306	26.702385	-12.807160	0.000000	-2.302551	0.032456	28.753103	5.647042	0.098559	27.141415	-10.998163	0.000000	0.115157	0.012894	-1.325824	0.213858	0.017149	-1.408688	0.189191	0.031351	-1.408688	0.131613	0.031351	-1.160096	0.106935	0.026294	-1.077232	0.065801	0.019973	-0.994368	0.822554	0.145864	-7.373835	0.000000	0.000000	8.842951	2.095239	1.208095	91.873267	-99.641440	68.981663	10.700108	26.474117	-15.023746	19.850395	-81.377076	-76.785559	-6.970951	0.888222	11.502451	-19.412759	-4.464203
1.956522	0.058748	-3.457089	96.664006	0.176518	0.835581	0.693122	-7.095753	-0.541887	-0.454645	0.767386	0.013393	26.760310	-12.616552	0.000000	-2.293079	0.064679	28.656152	5.637871	0.098399	27.156706	-10.899464	0.000000	0.116345	0.005836	-1.344985	0.216065	0.007762	-1.429046	0.191144	0.014189	-1.429046	0.132971	0.014189	-1.176862	0.108038	0.011900	-1.092800	0.066480	0.009040	-1.008739	0.831043	0.066015	-7.480402	0.000000	0.000000	8.715516	2.190648	1.186985	94.060235	-99.161015	67.220389	10.314980	29.093756	-15.041915	19.406825	-81.568222	-76.661674	-6.851406	0.862595	11.808859	-19.688385	-4.368372
1.978261	0.043531	-3.440355	96.675492	0.176521	0.835785	0.693040	-7.126095	-0.558401	-0.543184	0.770944	0.013456	26.773347	-12.505784	0.000000	-2.303311	0.072202	28.591580	5.625415	0.098182	27.181723	-10.841540	0.000000	0.117216	0.001862	-1.360480	0.217682	0.002477	-1.445510	0.192574	0.004528	-1.445510	0.133966	0.004528	-1.190420	0.108847	0.003798	-1.105390	0.066977	0.002885	-1.020360	0.837263	0.021069	-7.566581	0.000000	0.000000	8.547993	2.266364	1.166882	96.398729	-98.676676	64.983092	9.957216	31.404765	-15.220145	18.975724	-81.680799	-76.537814	-6.634070	0.838670	11.805643	-19.907228	-4.319402
2.000000	0.053808	-3.409987	96.677821	0.176502	0.836020	0.692939	-7.165352	-0.549700	-0.571954	0.772800	0.013488	26.729577	-12.500105	0.000000	-2.327584	0.051960	28.504865	5.621294	0.098110	27.236765	-10.737003	0.000000	0.117169	0.001893	-1.368048	0.217595	0.002517	-1.453551	0.192498	0.004602	-1.453551	0.133913	0.004602	-1.197042	0.108803	0.003859	-1.111539	0.066951	0.002932	-1.026036	0.836929	0.021409	-7.608674	0.000000	0.000000	8.374035	2.305931	1.138643	98.586943	-98.272138	62.425590	9.688385	33.034121	-15.559120	18.551873	-81.643457	-76.450063	-6.401532	0.816177	11.638423	-20.075464	-4.315305
2.021739	0.079901	-3.367492	96.668065	0.176484	0.836278	0.692820	-7.210339	-0.525385	-0.563223	0.773196	0.013495	26.646050	-12.562833	0.000000	-2.372089	0.013926	28.468252	5.611669	0.097942	27.276168	-10.685728	0.000000	0.115777	0.003936	-1.366782	0.215010	0.005234	-1.452206	0.190211	0.009569	-1.452206	0.132322	0.009569	-1.195934	0.107511	0.008025	-1.110510	0.066155	0.006096	-1.025086	0.826987	0.044520	-7.601630	0.000000	0.000000	8.225350	2.341245	1.077912	100.724511	-97.947693	59.556471	9.520949	34.049276	-16.079272	18.141081	-81.515605	-76.408728	-6.264664	0.798900	11.393014	-20.210429	-4.325776
2.043478	0.119039	-3.312389	96.637394	0.176466	0.836554	0.692696	-7.258706	-0.489960	-0.494047	0.772196	0.013477	26.527234	-12.710051	0.000000	-2.437466	-0.037391	28.478114	5.590319	0.097569	27.294613	-10.702328	0.000000	0.112421	0.007657	-1.353358	0.208777	0.010184	-1.437942	0.184696	0.018618	-1.437942	0.128486	0.018618	-1.184188	0.104394	0.015615	-1.099603	0.064237	0.011861	-1.015018	0.803010	0.086621	-7.526969	0.000000	0.000000	8.118930	2.381508	0.965729	102.792398	-97.713436	56.355546	9.446755	34.648827	-16.747264	17.783442	-81.289959	-76.434204	-6.229438	0.788881	11.160426	-20.342675	-4.283412
2.065217	0.184408	-3.251912	96.591159	0.176410	0.836828	0.692569	-7.301752	-0.431649	-0.390510	0.768778	0.013418	26.384569	-12.905421	0.000000	-2.514497	-0.113418	28.532022	5.550532	0.096875	27.305481	-10.777938	0.000000	0.108281	0.015112	-1.326176	0.201088	0.020100	-1.409063	0.177894	0.036744	-1.409063	0.123754	0.036744	-1.160404	0.100549	0.030817	-1.077518	0.061872	0.023409	-0.994632	0.773437	0.170955	-7.375796	0.000000	0.000000	8.062784	2.411553	0.801930	104.409223	-97.613453	53.173926	9.444368	34.757533	-17.425160	17.522654	-80.835047	-76.545282	-6.176290	0.778112	11.028925	-20.516534	-4.139100
2.086957	0.251402	-3.190613	96.531677	0.176395	0.837089	0.692427	-7.338617	-0.371213	-0.241474	0.762959	0.013316	26.236241	-13.158910	0.000000	-2.601376	-0.192973	28.642092	5.486093	0.095750	27.304291	-10.928897	0.000000	0.103835	0.021330	-1.286398	0.192832	0.028369	-1.366798	0.170591	0.051861	-1.366798	0.118673	0.051861	-1.125598	0.096421	0.043496	-1.045198	0.059331	0.033040	-0.964798	0.741685	0.241288	-7.154559	0.000000	0.000000	8.043436	2.479264	0.535107	105.548962	-97.688762	50.626866	9.492008	34.835285	-17.844622	17.423429	-80.388843	-76.740494	-6.296365	0.772459	10.923946	-20.694085	-3.961748
2.108696	0.311355	-3.124329	96.459416	0.176397	0.837335	0.692290	-7.375622	-0.318929	-0.079157	0.754972	0.013177	26.098632	-13.427725	0.000000	-2.697714	-0.267675	28.741983	5.402106	0.094285	27.325817	-11.034291	0.000000	0.098288	0.025726	-1.236884	0.182530	0.034215	-1.314189	0.161477	0.062549	-1.314189	0.112333	0.062549	-1.082274	0.091270	0.052460	-1.004968	0.056162	0.039849	-0.927663	0.702060	0.291013	-6.879179	0.000000	0.000000	8.034439	2.577774	0.190133	106.488379	-97.851017	48.341738	9.538583	34.939417	-18.123094	17.455899	-79.981613	-77.014105	-6.551190	0.772759	10.958354	-20.912955	-3.615260
